<?xml version="1.0" encoding="UTF-8"?>
<svg width="2265px" height="464px" viewBox="0 0 2265 464" version="1.1" xmlns="http://www.w3.org/2000/svg" xmlns:xlink="http://www.w3.org/1999/xlink">
    <!-- Generator: Sketch 43.2 (39069) - http://www.bohemiancoding.com/sketch -->
    <title>Group 37</title>
    <desc>Created with Sketch.</desc>
    <defs>
        <rect id="path-1" x="0" y="0" width="217" height="217" rx="50"></rect>
        <linearGradient x1="0%" y1="45.7068995%" x2="749.581884%" y2="45.706901%" id="linearGradient-2">
            <stop stop-color="#FF5683" offset="0%"></stop>
            <stop stop-color="#DA4A70" offset="100%"></stop>
        </linearGradient>
        <linearGradient x1="100%" y1="50%" x2="0%" y2="50%" id="linearGradient-3">
            <stop stop-color="#FE5683" offset="0%"></stop>
            <stop stop-color="#FF5683" offset="100%"></stop>
        </linearGradient>
        <rect id="path-4" x="0" y="0" width="217" height="217" rx="50"></rect>
        <rect id="path-5" x="0" y="0" width="217" height="217" rx="50"></rect>
        <rect id="path-6" x="0" y="0" width="217" height="217" rx="50"></rect>
        <rect id="path-7" x="0" y="0" width="217" height="217" rx="50"></rect>
        <rect id="path-8" x="0" y="0" width="217" height="217" rx="50"></rect>
        <rect id="path-9" x="0" y="0" width="1318" height="217" rx="50"></rect>
        <rect id="path-10" x="0" y="0" width="1523" height="217" rx="50"></rect>
    </defs>
    <g id="Page-1" stroke="none" stroke-width="1" fill="none" fill-rule="evenodd">
        <g id="Group-37">
            <g id="Fuse-Open-Symbol-4-Copy" transform="translate(247.000000, 0.000000)">
                <g id="Rectangle-2-Copy-2">
                    <use fill-opacity="0" fill="#FFFFFF" fill-rule="evenodd" xlink:href="#path-1"></use>
                    <rect stroke="#FE5683" stroke-width="20" x="10" y="10" width="197" height="197" rx="50"></rect>
                </g>
                <g id="Group-23-Copy-6" transform="translate(43.000000, 44.000000)">
                    <rect id="Rectangle-5-Copy-7" fill="#FE5683" transform="translate(16.250000, 65.000000) scale(-1, 1) rotate(-90.000000) translate(-16.250000, -65.000000) " x="-48.75" y="48.75" width="130" height="32.5" rx="16.25"></rect>
                    <g id="Group-19">
                        <path d="M0,16.25 C0,7.27537282 7.26781056,2.44797216e-14 16.2462713,2.28375815e-14 L16.2462713,2.28375815e-14 L121.686986,3.55271368e-15 C130.664145,1.91081161e-15 132.672672,5.02467146 126.17749,11.2187842 L103.861888,32.5 L0,32.5 L0,16.25 Z" id="Rectangle-5-Copy-4" fill="#FE5683"></path>
                        <path d="M1.84754501e-13,32.5 L17.875,32.5 C17.875,32.5 10.1674666,32.5153752 5.6875,37.375 C0.823716574,42.6509685 0,48.75 0,48.75" id="Triangle" fill="url(#linearGradient-2)"></path>
                        <path d="M0,74.75 C0,65.7753728 7.27128621,58.5 16.2439019,58.5 L76.375,58.5 L54.0177761,79.7925942 C47.5186128,85.9822735 34.9749467,91 26.0056851,91 L0,91 L0,74.75 Z" id="Rectangle-5-Copy-4" fill="url(#linearGradient-3)"></path>
                        <path d="M1.84754501e-13,91 L17.875,91 C17.875,91 10.1674666,91.0153752 5.6875,95.875 C0.823716574,101.150968 0,107.25 0,107.25" id="Triangle" fill="url(#linearGradient-2)"></path>
                    </g>
                </g>
                <g id="FO-Copy-28" transform="translate(115.000000, 116.000000)" fill="#FE5683">
                    <path d="M-21.8036472,29.5 C-21.8036472,25.4269 -18.4942534,22.125 -14.4318722,22.125 L29.2639332,22.125 C33.3352521,22.125 36.6357082,25.4351879 36.6357082,29.5 L36.6357082,29.5 C36.6357082,33.5731 33.3263145,36.875 29.2639332,36.875 L-21.8036472,36.875 L-21.8036472,29.5 Z" id="Rectangle-5-Copy-7" transform="translate(7.416031, 29.500000) rotate(-90.000000) translate(-7.416031, -29.500000) "></path>
                    <path d="M22.2506361,29.5 C22.2506361,25.4269 25.5600299,22.125 29.6224111,22.125 L73.3182165,22.125 C77.3895354,22.125 80.6899915,25.4351879 80.6899915,29.5 L80.6899915,29.5 C80.6899915,33.5731 77.3805978,36.875 73.3182165,36.875 L22.2506361,36.875 L22.2506361,29.5 Z" id="Rectangle-5-Copy-15" transform="translate(51.470314, 29.500000) scale(-1, 1) rotate(-90.000000) translate(-51.470314, -29.500000) "></path>
                    <path d="M0.111111111,7.375 C0.111111111,3.30189997 3.42050484,0 7.48288611,0 L51.1786915,0 C55.2500104,0 58.5504665,3.31018791 58.5504665,7.375 L58.5504665,14.75 L0.111111111,14.75 L0.111111111,7.375 Z" id="Rectangle-5-Copy-4"></path>
                    <path d="M0.111111111,51.625 C0.111111111,47.5519 3.42050484,44.25 7.48288611,44.25 L51.1786915,44.25 C55.2500104,44.25 58.5504665,47.5601879 58.5504665,51.625 L58.5504665,59 L0.111111111,59 L0.111111111,51.625 Z" id="Rectangle-5-Copy-5" transform="translate(29.330789, 51.625000) scale(1, -1) translate(-29.330789, -51.625000) "></path>
                </g>
            </g>
            <g id="Fuse-Open-Symbol-3-Copy">
                <g id="Rectangle-2-Copy-2">
                    <use fill-opacity="0" fill="#FFFFFF" fill-rule="evenodd" xlink:href="#path-4"></use>
                    <rect stroke="#FE5683" stroke-width="20" x="10" y="10" width="197" height="197" rx="50"></rect>
                </g>
                <g id="Group-23-Copy-6" transform="translate(43.000000, 44.000000)">
                    <rect id="Rectangle-5-Copy-7" fill="#FE5683" transform="translate(16.250000, 65.000000) scale(-1, 1) rotate(-90.000000) translate(-16.250000, -65.000000) " x="-48.75" y="48.75" width="130" height="32.5" rx="16.25"></rect>
                    <g id="Group-19">
                        <path d="M0,16.25 C0,7.27537282 7.26781056,2.44797216e-14 16.2462713,2.28375815e-14 L16.2462713,2.28375815e-14 L121.686986,3.55271368e-15 C130.664145,1.91081161e-15 132.672672,5.02467146 126.17749,11.2187842 L103.861888,32.5 L0,32.5 L0,16.25 Z" id="Rectangle-5-Copy-4" fill="#FE5683"></path>
                        <path d="M1.84754501e-13,32.5 L17.875,32.5 C17.875,32.5 10.1674666,32.5153752 5.6875,37.375 C0.823716574,42.6509685 0,48.75 0,48.75" id="Triangle" fill="url(#linearGradient-2)"></path>
                        <path d="M0,74.75 C0,65.7753728 7.27128621,58.5 16.2439019,58.5 L76.375,58.5 L54.0177761,79.7925942 C47.5186128,85.9822735 34.9749467,91 26.0056851,91 L0,91 L0,74.75 Z" id="Rectangle-5-Copy-4" fill="url(#linearGradient-3)"></path>
                        <path d="M1.84754501e-13,91 L17.875,91 C17.875,91 10.1674666,91.0153752 5.6875,95.875 C0.823716574,101.150968 0,107.25 0,107.25" id="Triangle" fill="url(#linearGradient-2)"></path>
                    </g>
                </g>
            </g>
            <g id="FO-Copy-45" transform="translate(632.000000, 0.000000)"></g>
            <g id="Fuse-Studio-Symbol-1-Copy" transform="translate(494.000000, 0.000000)">
                <g id="Rectangle-2-Copy">
                    <use fill-opacity="0" fill="#FFFFFF" fill-rule="evenodd" xlink:href="#path-5"></use>
                    <rect stroke="#FE5683" stroke-width="20" x="10" y="10" width="197" height="197" rx="50"></rect>
                </g>
                <rect id="Rectangle-5-Copy-7" fill="#FE5683" transform="translate(59.250000, 109.000000) scale(-1, 1) rotate(-90.000000) translate(-59.250000, -109.000000) " x="-5.75" y="92.75" width="130" height="32.5" rx="16.25"></rect>
                <path d="M43,60.25 C43,51.2753728 50.2678106,44 59.2462713,44 L59.2462713,44 L164.686986,44 C173.664145,44 175.672672,49.0246715 169.17749,55.2187842 L146.861888,76.5 L43,76.5 L43,60.25 Z" id="Rectangle-5-Copy-4" fill="#FE5683"></path>
                <path d="M43,76.5 L60.875,76.5 C60.875,76.5 53.1674666,76.5153752 48.6875,81.375 C43.8237166,86.6509685 43,92.75 43,92.75" id="Triangle" fill="url(#linearGradient-2)"></path>
                <path d="M43,118.75 C43,109.775373 50.2712862,102.5 59.2439019,102.5 L119.375,102.5 L97.0177761,123.792594 C90.5186128,129.982274 77.9749467,135 69.0056851,135 L43,135 L43,118.75 Z" id="Rectangle-5-Copy-4" fill="url(#linearGradient-3)"></path>
                <path d="M43,135 L60.875,135 C60.875,135 53.1674666,135.015375 48.6875,139.875 C43.8237166,145.150968 43,151.25 43,151.25" id="Triangle" fill="url(#linearGradient-2)"></path>
                <path d="M101.75,132.75 C101.75,128.607864 105.110877,125.25 109.248556,125.25 L131.751444,125.25 C135.892782,125.25 139.25,128.616293 139.25,132.75 L139.25,132.75 C139.25,136.892136 135.889123,140.25 131.751444,140.25 L101.75,140.25 L101.75,132.75 Z" id="Rectangle-5-Copy-7" fill="#FE5683" transform="translate(120.500000, 132.750000) rotate(-90.000000) translate(-120.500000, -132.750000) "></path>
                <path d="M146.75,155.25 C146.75,151.107864 150.110877,147.75 154.248556,147.75 L176.751444,147.75 C180.892782,147.75 184.25,151.116293 184.25,155.25 L184.25,155.25 C184.25,159.392136 180.889123,162.75 176.751444,162.75 L146.75,162.75 L146.75,155.25 Z" id="Rectangle-5-Copy-10" fill="#FE5683" transform="translate(165.500000, 155.250000) scale(-1, 1) rotate(-90.000000) translate(-165.500000, -155.250000) "></path>
                <path d="M113,121.5 C113,117.357864 116.354427,114 120.507983,114 L165.492017,114 C169.638561,114 173,117.366293 173,121.5 L173,129 L113,129 L113,121.5 Z" id="Rectangle-5-Copy-4" fill="#FE5683"></path>
                <path d="M113,136.5 L165.492017,136.5 C169.638561,136.5 173,139.866293 173,144 L173,151.5 L120.507983,151.5 C116.361439,151.5 113,148.133707 113,144 L113,136.5 Z" id="Rectangle-5-Copy-6" fill="#FE5683"></path>
                <path d="M113,166.5 C113,162.357864 116.354427,159 120.507983,159 L165.492017,159 C169.638561,159 173,162.366293 173,166.5 L173,174 L113,174 L113,166.5 Z" id="Rectangle-5-Copy-5" fill="#FE5683" transform="translate(143.000000, 166.500000) scale(1, -1) translate(-143.000000, -166.500000) "></path>
            </g>
            <g id="Group-36-Copy" transform="translate(0.000000, 247.000000)">
                <g id="Rectangle-2-Copy-3">
                    <use fill-opacity="0" fill="#FFFFFF" fill-rule="evenodd" xlink:href="#path-6"></use>
                    <rect stroke="#FE5683" stroke-width="20" x="10" y="10" width="197" height="197" rx="50"></rect>
                </g>
                <g id="FO-Copy-39" transform="translate(44.000000, 43.000000)">
                    <rect id="Rectangle-5-Copy-7" fill="#FE5683" transform="translate(16.250000, 65.000000) scale(-1, 1) rotate(-90.000000) translate(-16.250000, -65.000000) " x="-48.75" y="48.75" width="130" height="32.5" rx="16.25"></rect>
                    <g id="Group-15">
                        <path d="M0,16.25 C0,7.27537282 7.26792427,0 16.2508979,0 L113.749102,0 C122.724225,0 130,7.27339954 130,16.25 L130,32.5 L0,32.5 L0,16.25 Z" id="Rectangle-5-Copy-4" fill="#FE5683"></path>
                        <path d="M1.84754501e-13,32.5 L17.875,32.5 C17.875,32.5 10.1674666,32.5153752 5.6875,37.375 C0.823716574,42.6509685 0,48.75 0,48.75" id="Triangle" fill="url(#linearGradient-2)"></path>
                    </g>
                    <g id="Group-14" transform="translate(0.000000, 49.562500)">
                        <path d="M0,16.25 C0,7.27537282 7.28196907,0 16.2498615,0 L82.875,0 L82.875,16.25 C82.875,25.2246272 75.5930309,32.5 66.6251385,32.5 L0,32.5 L0,16.25 Z" id="Rectangle-5-Copy-4" fill="url(#linearGradient-3)"></path>
                        <path d="M1.84754501e-13,32.5 L17.875,32.5 C17.875,32.5 10.1674666,32.5153752 5.6875,37.375 C0.823716574,42.6509685 0,48.75 0,48.75" id="Triangle" fill="url(#linearGradient-2)"></path>
                    </g>
                </g>
            </g>
            <g id="Group-36-Copy-2" transform="translate(247.000000, 247.000000)">
                <g id="Rectangle-2-Copy-3">
                    <use fill-opacity="0" fill="#FFFFFF" fill-rule="evenodd" xlink:href="#path-7"></use>
                    <rect stroke="#FE5683" stroke-width="20" x="10" y="10" width="197" height="197" rx="50"></rect>
                </g>
                <g id="FO-Copy-28" transform="translate(125.000000, 125.000000)" fill="#FE5683">
                    <path d="M-18.1081137,24.5 C-18.1081137,21.1172559 -15.3596342,18.375 -11.9857921,18.375 L24.3039445,18.375 C27.6852094,18.375 30.4262662,21.1241391 30.4262662,24.5 L30.4262662,24.5 C30.4262662,27.8827441 27.6777866,30.625 24.3039445,30.625 L-18.1081137,30.625 L-18.1081137,24.5 Z" id="Rectangle-5-Copy-7" transform="translate(6.159076, 24.500000) rotate(-90.000000) translate(-6.159076, -24.500000) "></path>
                    <path d="M18.4793419,24.5 C18.4793419,21.1172559 21.2278214,18.375 24.6016635,18.375 L60.8914002,18.375 C64.272665,18.375 67.0137218,21.1241391 67.0137218,24.5 L67.0137218,24.5 C67.0137218,27.8827441 64.2652422,30.625 60.8914002,30.625 L18.4793419,30.625 L18.4793419,24.5 Z" id="Rectangle-5-Copy-15" transform="translate(42.746532, 24.500000) scale(-1, 1) rotate(-90.000000) translate(-42.746532, -24.500000) "></path>
                    <path d="M0.0922787194,6.125 C0.0922787194,2.74225591 2.84075826,0 6.21460033,0 L42.504337,0 C45.8856019,0 48.6266586,2.74913911 48.6266586,6.125 L48.6266586,12.25 L0.0922787194,12.25 L0.0922787194,6.125 Z" id="Rectangle-5-Copy-4"></path>
                    <path d="M0.0922787194,42.875 C0.0922787194,39.4922559 2.84075826,36.75 6.21460033,36.75 L42.504337,36.75 C45.8856019,36.75 48.6266586,39.4991391 48.6266586,42.875 L48.6266586,49 L0.0922787194,49 L0.0922787194,42.875 Z" id="Rectangle-5-Copy-5" transform="translate(24.359469, 42.875000) scale(1, -1) translate(-24.359469, -42.875000) "></path>
                </g>
                <g id="FO-Copy-39" transform="translate(44.000000, 43.000000)">
                    <rect id="Rectangle-5-Copy-7" fill="#FE5683" transform="translate(16.250000, 65.000000) scale(-1, 1) rotate(-90.000000) translate(-16.250000, -65.000000) " x="-48.75" y="48.75" width="130" height="32.5" rx="16.25"></rect>
                    <g id="Group-15">
                        <path d="M0,16.25 C0,7.27537282 7.26792427,0 16.2508979,0 L113.749102,0 C122.724225,0 130,7.27339954 130,16.25 L130,32.5 L0,32.5 L0,16.25 Z" id="Rectangle-5-Copy-4" fill="#FE5683"></path>
                        <path d="M1.84754501e-13,32.5 L17.875,32.5 C17.875,32.5 10.1674666,32.5153752 5.6875,37.375 C0.823716574,42.6509685 0,48.75 0,48.75" id="Triangle" fill="url(#linearGradient-2)"></path>
                    </g>
                    <g id="Group-14" transform="translate(0.000000, 49.562500)">
                        <path d="M0,16.25 C0,7.27537282 7.28196907,0 16.2498615,0 L82.875,0 L82.875,16.25 C82.875,25.2246272 75.5930309,32.5 66.6251385,32.5 L0,32.5 L0,16.25 Z" id="Rectangle-5-Copy-4" fill="url(#linearGradient-3)"></path>
                        <path d="M1.84754501e-13,32.5 L17.875,32.5 C17.875,32.5 10.1674666,32.5153752 5.6875,37.375 C0.823716574,42.6509685 0,48.75 0,48.75" id="Triangle" fill="url(#linearGradient-2)"></path>
                    </g>
                </g>
            </g>
            <g id="Group-37-Copy" transform="translate(494.000000, 247.000000)">
                <g id="Rectangle-2-Copy-7">
                    <use fill-opacity="0" fill="#FFFFFF" fill-rule="evenodd" xlink:href="#path-8"></use>
                    <rect stroke="#FE5683" stroke-width="20" x="10" y="10" width="197" height="197" rx="50"></rect>
                </g>
                <g id="FO-Copy-40" transform="translate(43.000000, 44.000000)">
                    <rect id="Rectangle-5-Copy-7" fill="#FE5683" transform="translate(16.250000, 65.000000) scale(-1, 1) rotate(-90.000000) translate(-16.250000, -65.000000) " x="-48.75" y="48.75" width="130" height="32.5" rx="16.25"></rect>
                    <g id="Group-15">
                        <path d="M0,16.25 C0,7.27537282 7.26792427,0 16.2508979,0 L113.749102,0 C122.724225,0 130,7.27339954 130,16.25 L130,32.5 L0,32.5 L0,16.25 Z" id="Rectangle-5-Copy-4" fill="#FE5683"></path>
                        <path d="M1.84754501e-13,32.5 L17.875,32.5 C17.875,32.5 10.1674666,32.5153752 5.6875,37.375 C0.823716574,42.6509685 0,48.75 0,48.75" id="Triangle" fill="url(#linearGradient-2)"></path>
                    </g>
                    <g id="Group-14" transform="translate(0.000000, 49.562500)">
                        <path d="M0,16.25 C0,7.27537282 7.28196907,0 16.2498615,0 L82.875,0 L82.875,16.25 C82.875,25.2246272 75.5930309,32.5 66.6251385,32.5 L0,32.5 L0,16.25 Z" id="Rectangle-5-Copy-4" fill="url(#linearGradient-3)"></path>
                        <path d="M1.84754501e-13,32.5 L17.875,32.5 C17.875,32.5 10.1674666,32.5153752 5.6875,37.375 C0.823716574,42.6509685 0,48.75 0,48.75" id="Triangle" fill="url(#linearGradient-2)"></path>
                    </g>
                </g>
                <g id="FO-Copy-41" transform="translate(124.000000, 125.000000)" fill="#FE5683">
                    <path d="M-9.1875,15.3125 C-9.1875,11.9297559 -6.44278392,9.1875 -3.06367911,9.1875 L15.3136791,9.1875 C18.695772,9.1875 21.4375,11.9366391 21.4375,15.3125 L21.4375,15.3125 C21.4375,18.6952441 18.6927839,21.4375 15.3136791,21.4375 L-9.1875,21.4375 L-9.1875,15.3125 Z" id="Rectangle-5-Copy-7" transform="translate(6.125000, 15.312500) rotate(-90.000000) translate(-6.125000, -15.312500) "></path>
                    <path d="M27.5625,33.6875 C27.5625,30.3047559 30.3072161,27.5625 33.6863209,27.5625 L52.0636791,27.5625 C55.445772,27.5625 58.1875,30.3116391 58.1875,33.6875 L58.1875,33.6875 C58.1875,37.0702441 55.4427839,39.8125 52.0636791,39.8125 L27.5625,39.8125 L27.5625,33.6875 Z" id="Rectangle-5-Copy-10" transform="translate(42.875000, 33.687500) scale(-1, 1) rotate(-90.000000) translate(-42.875000, -33.687500) "></path>
                    <path d="M0,6.125 C0,2.74225591 2.73944838,0 6.13151961,0 L42.8684804,0 C46.2548252,0 49,2.74913911 49,6.125 L49,12.25 L0,12.25 L0,6.125 Z" id="Rectangle-5-Copy-4"></path>
                    <path d="M0,18.375 L42.8684804,18.375 C46.2548252,18.375 49,21.1241391 49,24.5 L49,30.625 L6.13151961,30.625 C2.74517483,30.625 0,27.8758609 0,24.5 L0,18.375 Z" id="Rectangle-5-Copy-6"></path>
                    <path d="M0,42.875 C0,39.4922559 2.73944838,36.75 6.13151961,36.75 L42.8684804,36.75 C46.2548252,36.75 49,39.4991391 49,42.875 L49,49 L0,49 L0,42.875 Z" id="Rectangle-5-Copy-5" transform="translate(24.500000, 42.875000) scale(1, -1) translate(-24.500000, -42.875000) "></path>
                </g>
            </g>
            <g id="Group-38-Copy" transform="translate(742.000000, 0.000000)">
                <g id="Group-35-Copy-3">
                    <g id="Group-33-Copy-2">
                        <g id="Rectangle-2-Copy-2">
                            <use fill-opacity="0" fill="#FFFFFF" fill-rule="evenodd" xlink:href="#path-9"></use>
                            <rect stroke="#FE5683" stroke-width="20" x="10" y="10" width="1298" height="197" rx="50"></rect>
                        </g>
                    </g>
                    <g id="Group-34-Copy-2" transform="translate(193.000000, 43.000000)" fill="#FE5683">
                        <g id="FO-Copy-25" transform="translate(160.000000, 1.000000)">
                            <path d="M-24.375,40.625 C-24.375,31.6503728 -17.0931002,24.375 -8.12812826,24.375 L40.6281283,24.375 C49.6010278,24.375 56.875,31.6483995 56.875,40.625 L56.875,40.625 C56.875,49.5996272 49.5931002,56.875 40.6281283,56.875 L-24.375,56.875 L-24.375,40.625 Z" id="Rectangle-5-Copy-7" transform="translate(16.250000, 40.625000) rotate(-90.000000) translate(-16.250000, -40.625000) "></path>
                            <path d="M73.125,89.375 C73.125,80.4003728 80.4068998,73.125 89.3718717,73.125 L138.128128,73.125 C147.101028,73.125 154.375,80.3983995 154.375,89.375 L154.375,89.375 C154.375,98.3496272 147.0931,105.625 138.128128,105.625 L73.125,105.625 L73.125,89.375 Z" id="Rectangle-5-Copy-10" transform="translate(113.750000, 89.375000) scale(-1, 1) rotate(-90.000000) translate(-113.750000, -89.375000) "></path>
                            <path d="M0,16.25 C0,7.27537282 7.26792427,0 16.2508979,0 L113.749102,0 C122.724225,0 130,7.27339954 130,16.25 L130,32.5 L0,32.5 L0,16.25 Z" id="Rectangle-5-Copy-4"></path>
                            <path d="M0,48.75 L113.749102,48.75 C122.724225,48.75 130,56.0233995 130,65 L130,81.25 L16.2508979,81.25 C7.27577482,81.25 0,73.9766005 0,65 L0,48.75 Z" id="Rectangle-5-Copy-6"></path>
                            <path d="M0,113.75 C0,104.775373 7.26792427,97.5 16.2508979,97.5 L113.749102,97.5 C122.724225,97.5 130,104.7734 130,113.75 L130,130 L0,130 L0,113.75 Z" id="Rectangle-5-Copy-5" transform="translate(65.000000, 113.750000) scale(1, -1) translate(-65.000000, -113.750000) "></path>
                        </g>
                        <g id="FO-Copy-26" transform="translate(310.000000, 1.000000)">
                            <path d="M-48.75,65 C-48.75,56.0253728 -41.4820757,48.75 -32.4991021,48.75 L64.9991021,48.75 C73.9742252,48.75 81.25,56.0233995 81.25,65 L81.25,65 C81.25,73.9746272 73.9820757,81.25 64.9991021,81.25 L-48.75,81.25 L-48.75,65 Z" id="Rectangle-5-Copy-7" transform="translate(16.250000, 65.000000) rotate(-90.000000) translate(-16.250000, -65.000000) "></path>
                            <path d="M0,16.25 C0,7.27537282 7.26792427,0 16.2508979,0 L113.749102,0 C122.724225,0 130,7.27339954 130,16.25 L130,32.5 L0,32.5 L0,16.25 Z" id="Rectangle-5-Copy-4"></path>
                            <rect id="Rectangle-5-Copy-6" x="0" y="48.75" width="130" height="32.5" rx="16.25"></rect>
                            <path d="M0,113.75 C0,104.775373 7.26792427,97.5 16.2508979,97.5 L113.749102,97.5 C122.724225,97.5 130,104.7734 130,113.75 L130,130 L0,130 L0,113.75 Z" id="Rectangle-5-Copy-5" transform="translate(65.000000, 113.750000) scale(1, -1) translate(-65.000000, -113.750000) "></path>
                        </g>
                        <g id="FO-Copy-27" transform="translate(65.000000, 65.000000) rotate(-90.000000) translate(-65.000000, -65.000000) ">
                            <path d="M-48.75,65 C-48.75,56.0253728 -41.4820757,48.75 -32.4991021,48.75 L64.9991021,48.75 C73.9742252,48.75 81.25,56.0233995 81.25,65 L81.25,65 C81.25,73.9746272 73.9820757,81.25 64.9991021,81.25 L-48.75,81.25 L-48.75,65 Z" id="Rectangle-5-Copy-7" transform="translate(16.250000, 65.000000) rotate(-90.000000) translate(-16.250000, -65.000000) "></path>
                            <path d="M0,16.25 C0,7.27537282 7.26792427,0 16.2508979,0 L113.749102,0 C122.724225,0 130,7.27339954 130,16.25 L130,32.5 L0,32.5 L0,16.25 Z" id="Rectangle-5-Copy-4"></path>
                            <path d="M0,113.75 C0,104.775373 7.26792427,97.5 16.2508979,97.5 L113.749102,97.5 C122.724225,97.5 130,104.7734 130,113.75 L130,130 L0,130 L0,113.75 Z" id="Rectangle-5-Copy-5" transform="translate(65.000000, 113.750000) scale(1, -1) translate(-65.000000, -113.750000) "></path>
                        </g>
                    </g>
                    <g id="FO-Copy-12" transform="translate(44.000000, 43.000000)">
                        <rect id="Rectangle-5-Copy-7" fill="#FE5683" transform="translate(16.250000, 65.000000) scale(-1, 1) rotate(-90.000000) translate(-16.250000, -65.000000) " x="-48.75" y="48.75" width="130" height="32.5" rx="16.25"></rect>
                        <g id="Group-15">
                            <path d="M0,16.25 C0,7.27537282 7.26792427,0 16.2508979,0 L113.749102,0 C122.724225,0 130,7.27339954 130,16.25 L130,32.5 L0,32.5 L0,16.25 Z" id="Rectangle-5-Copy-4" fill="#FE5683"></path>
                            <path d="M1.84754501e-13,32.5 L17.875,32.5 C17.875,32.5 10.1674666,32.5153752 5.6875,37.375 C0.823716574,42.6509685 0,48.75 0,48.75" id="Triangle" fill="url(#linearGradient-2)"></path>
                        </g>
                        <g id="Group-14" transform="translate(0.000000, 49.562500)">
                            <path d="M0,16.25 C0,7.27537282 7.28196907,0 16.2498615,0 L82.875,0 L82.875,16.25 C82.875,25.2246272 75.5930309,32.5 66.6251385,32.5 L0,32.5 L0,16.25 Z" id="Rectangle-5-Copy-4" fill="url(#linearGradient-3)"></path>
                            <path d="M1.84754501e-13,32.5 L17.875,32.5 C17.875,32.5 10.1674666,32.5153752 5.6875,37.375 C0.823716574,42.6509685 0,48.75 0,48.75" id="Triangle" fill="url(#linearGradient-2)"></path>
                        </g>
                    </g>
                </g>
                <g id="FO-Copy-28" transform="translate(692.000000, 44.000000)" fill="#FE5683">
                    <path d="M-48.75,65 C-48.75,56.0253728 -41.4820757,48.75 -32.4991021,48.75 L64.9991021,48.75 C73.9742252,48.75 81.25,56.0233995 81.25,65 L81.25,65 C81.25,73.9746272 73.9820757,81.25 64.9991021,81.25 L-48.75,81.25 L-48.75,65 Z" id="Rectangle-5-Copy-7" transform="translate(16.250000, 65.000000) rotate(-90.000000) translate(-16.250000, -65.000000) "></path>
                    <path d="M49.25,65 C49.25,56.0253728 56.5179243,48.75 65.5008979,48.75 L162.999102,48.75 C171.974225,48.75 179.25,56.0233995 179.25,65 L179.25,65 C179.25,73.9746272 171.982076,81.25 162.999102,81.25 L49.25,81.25 L49.25,65 Z" id="Rectangle-5-Copy-15" transform="translate(114.250000, 65.000000) scale(-1, 1) rotate(-90.000000) translate(-114.250000, -65.000000) "></path>
                    <path d="M0,16.25 C0,7.27537282 7.26792427,0 16.2508979,0 L113.749102,0 C122.724225,0 130,7.27339954 130,16.25 L130,32.5 L0,32.5 L0,16.25 Z" id="Rectangle-5-Copy-4"></path>
                    <path d="M0,113.75 C0,104.775373 7.26792427,97.5 16.2508979,97.5 L113.749102,97.5 C122.724225,97.5 130,104.7734 130,113.75 L130,130 L0,130 L0,113.75 Z" id="Rectangle-5-Copy-5" transform="translate(65.000000, 113.750000) scale(1, -1) translate(-65.000000, -113.750000) "></path>
                </g>
                <g id="FO-Copy-44" transform="translate(1204.000000, 108.500000) rotate(-270.000000) translate(-1204.000000, -108.500000) translate(1132.000000, 42.000000)" fill="#FE5683">
                    <rect id="Rectangle-5-Copy-7" transform="translate(71.828974, 66.878441) rotate(-41.000000) translate(-71.828974, -66.878441) " x="-8.93011349" y="50.6284415" width="161.518175" height="32.5" rx="16.25"></rect>
                    <path d="M7,16.25 C7,7.27537282 14.2679243,0 23.2508979,0 L120.749102,0 C129.724225,0 137,7.27339954 137,16.25 L137,25.5079749 C137,29.3695637 133.866922,32.5 129.999125,32.5 L7,32.5 L7,16.25 Z" id="Rectangle-5-Copy-4"></path>
                    <path d="M7,113.75 C7,104.775373 14.2679243,97.5 23.2508979,97.5 L120.749102,97.5 C129.724225,97.5 137,104.7734 137,113.75 L137,130 L14.0008755,130 C10.1343987,130 7,126.869013 7,123.007975 L7,113.75 Z" id="Rectangle-5-Copy-5" transform="translate(72.000000, 113.750000) scale(1, -1) translate(-72.000000, -113.750000) "></path>
                </g>
                <g id="FO-Copy-42" transform="translate(842.000000, 44.000000)" fill="#FE5683">
                    <path d="M-24.375,40.625 C-24.375,31.6503728 -17.0931002,24.375 -8.12812826,24.375 L40.6281283,24.375 C49.6010278,24.375 56.875,31.6483995 56.875,40.625 L56.875,40.625 C56.875,49.5996272 49.5931002,56.875 40.6281283,56.875 L-24.375,56.875 L-24.375,40.625 Z" id="Rectangle-5-Copy-7" transform="translate(16.250000, 40.625000) rotate(-90.000000) translate(-16.250000, -40.625000) "></path>
                    <rect id="Rectangle-5-Copy-10" transform="translate(16.750000, 89.375000) rotate(-90.000000) translate(-16.750000, -89.375000) " x="-23.875" y="73.125" width="81.25" height="32.5" rx="16.25"></rect>
                    <path d="M73.625,40.625 C73.625,31.6503728 80.9068998,24.375 89.8718717,24.375 L138.628128,24.375 C147.601028,24.375 154.875,31.6483995 154.875,40.625 L154.875,40.625 C154.875,49.5996272 147.5931,56.875 138.628128,56.875 L73.625,56.875 L73.625,40.625 Z" id="Rectangle-5-Copy-7" transform="translate(114.250000, 40.625000) scale(-1, 1) rotate(-90.000000) translate(-114.250000, -40.625000) "></path>
                    <path d="M0,16.25 C0,7.27537282 7.26792427,0 16.2508979,0 L113.749102,0 C122.724225,0 130,7.27339954 130,16.25 L130,32.5 L0,32.5 L0,16.25 Z" id="Rectangle-5-Copy-4"></path>
                    <path d="M0,48.75 L130,48.75 L130,65 C130,73.9746272 122.732076,81.25 113.749102,81.25 L16.2508979,81.25 C7.27577482,81.25 0,73.9766005 0,65 L0,48.75 Z" id="Rectangle-5-Copy-6"></path>
                </g>
                <g id="FO-Copy-43" transform="translate(990.000000, 43.000000)" fill="#FE5683">
                    <path d="M-48.75,65 C-48.75,56.0253728 -41.4820757,48.75 -32.4991021,48.75 L64.9991021,48.75 C73.9742252,48.75 81.25,56.0233995 81.25,65 L81.25,65 C81.25,73.9746272 73.9820757,81.25 64.9991021,81.25 L-48.75,81.25 L-48.75,65 Z" id="Rectangle-5-Copy-7" transform="translate(16.250000, 65.000000) rotate(-90.000000) translate(-16.250000, -65.000000) "></path>
                    <path d="M0,16.25 C0,7.27537282 7.26792427,0 16.2508979,0 L113.749102,0 C122.724225,0 130,7.27339954 130,16.25 L130,32.5 L0,32.5 L0,16.25 Z" id="Rectangle-5-Copy-4"></path>
                    <rect id="Rectangle-5-Copy-6" x="0" y="48.75" width="130" height="32.5" rx="16.25"></rect>
                    <path d="M0,113.75 C0,104.775373 7.26792427,97.5 16.2508979,97.5 L113.749102,97.5 C122.724225,97.5 130,104.7734 130,113.75 L130,130 L0,130 L0,113.75 Z" id="Rectangle-5-Copy-5" transform="translate(65.000000, 113.750000) scale(1, -1) translate(-65.000000, -113.750000) "></path>
                </g>
            </g>
            <g id="Group-36" transform="translate(742.000000, 247.000000)">
                <g id="Group-35-Copy-5">
                    <g id="Group-33-Copy-2">
                        <g id="Rectangle-2-Copy-2">
                            <use fill-opacity="0" fill="#FFFFFF" fill-rule="evenodd" xlink:href="#path-10"></use>
                            <rect stroke="#FE5683" stroke-width="20" x="10" y="10" width="1503" height="197" rx="50"></rect>
                        </g>
                    </g>
                    <g id="Group-34-Copy-2" transform="translate(193.000000, 43.000000)" fill="#FE5683">
                        <g id="FO-Copy-25" transform="translate(160.000000, 1.000000)">
                            <path d="M-24.375,40.625 C-24.375,31.6503728 -17.0931002,24.375 -8.12812826,24.375 L40.6281283,24.375 C49.6010278,24.375 56.875,31.6483995 56.875,40.625 L56.875,40.625 C56.875,49.5996272 49.5931002,56.875 40.6281283,56.875 L-24.375,56.875 L-24.375,40.625 Z" id="Rectangle-5-Copy-7" transform="translate(16.250000, 40.625000) rotate(-90.000000) translate(-16.250000, -40.625000) "></path>
                            <path d="M73.125,89.375 C73.125,80.4003728 80.4068998,73.125 89.3718717,73.125 L138.128128,73.125 C147.101028,73.125 154.375,80.3983995 154.375,89.375 L154.375,89.375 C154.375,98.3496272 147.0931,105.625 138.128128,105.625 L73.125,105.625 L73.125,89.375 Z" id="Rectangle-5-Copy-10" transform="translate(113.750000, 89.375000) scale(-1, 1) rotate(-90.000000) translate(-113.750000, -89.375000) "></path>
                            <path d="M0,16.25 C0,7.27537282 7.26792427,0 16.2508979,0 L113.749102,0 C122.724225,0 130,7.27339954 130,16.25 L130,32.5 L0,32.5 L0,16.25 Z" id="Rectangle-5-Copy-4"></path>
                            <path d="M0,48.75 L113.749102,48.75 C122.724225,48.75 130,56.0233995 130,65 L130,81.25 L16.2508979,81.25 C7.27577482,81.25 0,73.9766005 0,65 L0,48.75 Z" id="Rectangle-5-Copy-6"></path>
                            <path d="M0,113.75 C0,104.775373 7.26792427,97.5 16.2508979,97.5 L113.749102,97.5 C122.724225,97.5 130,104.7734 130,113.75 L130,130 L0,130 L0,113.75 Z" id="Rectangle-5-Copy-5" transform="translate(65.000000, 113.750000) scale(1, -1) translate(-65.000000, -113.750000) "></path>
                        </g>
                        <g id="FO-Copy-26" transform="translate(310.000000, 1.000000)">
                            <path d="M-48.75,65 C-48.75,56.0253728 -41.4820757,48.75 -32.4991021,48.75 L64.9991021,48.75 C73.9742252,48.75 81.25,56.0233995 81.25,65 L81.25,65 C81.25,73.9746272 73.9820757,81.25 64.9991021,81.25 L-48.75,81.25 L-48.75,65 Z" id="Rectangle-5-Copy-7" transform="translate(16.250000, 65.000000) rotate(-90.000000) translate(-16.250000, -65.000000) "></path>
                            <path d="M0,16.25 C0,7.27537282 7.26792427,0 16.2508979,0 L113.749102,0 C122.724225,0 130,7.27339954 130,16.25 L130,32.5 L0,32.5 L0,16.25 Z" id="Rectangle-5-Copy-4"></path>
                            <rect id="Rectangle-5-Copy-6" x="0" y="48.75" width="130" height="32.5" rx="16.25"></rect>
                            <path d="M0,113.75 C0,104.775373 7.26792427,97.5 16.2508979,97.5 L113.749102,97.5 C122.724225,97.5 130,104.7734 130,113.75 L130,130 L0,130 L0,113.75 Z" id="Rectangle-5-Copy-5" transform="translate(65.000000, 113.750000) scale(1, -1) translate(-65.000000, -113.750000) "></path>
                        </g>
                        <g id="FO-Copy-27" transform="translate(65.000000, 65.000000) rotate(-90.000000) translate(-65.000000, -65.000000) ">
                            <path d="M-48.75,65 C-48.75,56.0253728 -41.4820757,48.75 -32.4991021,48.75 L64.9991021,48.75 C73.9742252,48.75 81.25,56.0233995 81.25,65 L81.25,65 C81.25,73.9746272 73.9820757,81.25 64.9991021,81.25 L-48.75,81.25 L-48.75,65 Z" id="Rectangle-5-Copy-7" transform="translate(16.250000, 65.000000) rotate(-90.000000) translate(-16.250000, -65.000000) "></path>
                            <path d="M0,16.25 C0,7.27537282 7.26792427,0 16.2508979,0 L113.749102,0 C122.724225,0 130,7.27339954 130,16.25 L130,32.5 L0,32.5 L0,16.25 Z" id="Rectangle-5-Copy-4"></path>
                            <path d="M0,113.75 C0,104.775373 7.26792427,97.5 16.2508979,97.5 L113.749102,97.5 C122.724225,97.5 130,104.7734 130,113.75 L130,130 L0,130 L0,113.75 Z" id="Rectangle-5-Copy-5" transform="translate(65.000000, 113.750000) scale(1, -1) translate(-65.000000, -113.750000) "></path>
                        </g>
                    </g>
                    <g id="FO-Copy-12" transform="translate(44.000000, 43.000000)">
                        <rect id="Rectangle-5-Copy-7" fill="#FE5683" transform="translate(16.250000, 65.000000) scale(-1, 1) rotate(-90.000000) translate(-16.250000, -65.000000) " x="-48.75" y="48.75" width="130" height="32.5" rx="16.25"></rect>
                        <g id="Group-15">
                            <path d="M0,16.25 C0,7.27537282 7.26792427,0 16.2508979,0 L113.749102,0 C122.724225,0 130,7.27339954 130,16.25 L130,32.5 L0,32.5 L0,16.25 Z" id="Rectangle-5-Copy-4" fill="#FE5683"></path>
                            <path d="M1.84754501e-13,32.5 L17.875,32.5 C17.875,32.5 10.1674666,32.5153752 5.6875,37.375 C0.823716574,42.6509685 0,48.75 0,48.75" id="Triangle" fill="url(#linearGradient-2)"></path>
                        </g>
                        <g id="Group-14" transform="translate(0.000000, 49.562500)">
                            <path d="M0,16.25 C0,7.27537282 7.28196907,0 16.2498615,0 L82.875,0 L82.875,16.25 C82.875,25.2246272 75.5930309,32.5 66.6251385,32.5 L0,32.5 L0,16.25 Z" id="Rectangle-5-Copy-4" fill="url(#linearGradient-3)"></path>
                            <path d="M1.84754501e-13,32.5 L17.875,32.5 C17.875,32.5 10.1674666,32.5153752 5.6875,37.375 C0.823716574,42.6509685 0,48.75 0,48.75" id="Triangle" fill="url(#linearGradient-2)"></path>
                        </g>
                    </g>
                </g>
                <g id="Group-29-Copy-7" transform="translate(693.000000, 43.000000)" fill="#FE5683">
                    <g id="FO-Copy-32">
                        <path d="M-24.375,40.625 C-24.375,31.6503728 -17.0931002,24.375 -8.12812826,24.375 L40.6281283,24.375 C49.6010278,24.375 56.875,31.6483995 56.875,40.625 L56.875,40.625 C56.875,49.5996272 49.5931002,56.875 40.6281283,56.875 L-24.375,56.875 L-24.375,40.625 Z" id="Rectangle-5-Copy-7" transform="translate(16.250000, 40.625000) rotate(-90.000000) translate(-16.250000, -40.625000) "></path>
                        <path d="M73.125,89.375 C73.125,80.4003728 80.4068998,73.125 89.3718717,73.125 L138.128128,73.125 C147.101028,73.125 154.375,80.3983995 154.375,89.375 L154.375,89.375 C154.375,98.3496272 147.0931,105.625 138.128128,105.625 L73.125,105.625 L73.125,89.375 Z" id="Rectangle-5-Copy-10" transform="translate(113.750000, 89.375000) scale(-1, 1) rotate(-90.000000) translate(-113.750000, -89.375000) "></path>
                        <path d="M0,16.25 C0,7.27537282 7.26792427,0 16.2508979,0 L113.749102,0 C122.724225,0 130,7.27339954 130,16.25 L130,32.5 L0,32.5 L0,16.25 Z" id="Rectangle-5-Copy-4"></path>
                        <path d="M0,48.75 L113.749102,48.75 C122.724225,48.75 130,56.0233995 130,65 L130,81.25 L16.2508979,81.25 C7.27577482,81.25 0,73.9766005 0,65 L0,48.75 Z" id="Rectangle-5-Copy-6"></path>
                        <path d="M0,113.75 C0,104.775373 7.26792427,97.5 16.2508979,97.5 L113.749102,97.5 C122.724225,97.5 130,104.7734 130,113.75 L130,130 L0,130 L0,113.75 Z" id="Rectangle-5-Copy-5" transform="translate(65.000000, 113.750000) scale(1, -1) translate(-65.000000, -113.750000) "></path>
                    </g>
                    <g id="FO-Copy-28" transform="translate(650.000000, 0.000000)">
                        <path d="M-48.75,65 C-48.75,56.0253728 -41.4820757,48.75 -32.4991021,48.75 L64.9991021,48.75 C73.9742252,48.75 81.25,56.0233995 81.25,65 L81.25,65 C81.25,73.9746272 73.9820757,81.25 64.9991021,81.25 L-48.75,81.25 L-48.75,65 Z" id="Rectangle-5-Copy-7" transform="translate(16.250000, 65.000000) rotate(-90.000000) translate(-16.250000, -65.000000) "></path>
                        <path d="M49.25,65 C49.25,56.0253728 56.5179243,48.75 65.5008979,48.75 L162.999102,48.75 C171.974225,48.75 179.25,56.0233995 179.25,65 L179.25,65 C179.25,73.9746272 171.982076,81.25 162.999102,81.25 L49.25,81.25 L49.25,65 Z" id="Rectangle-5-Copy-15" transform="translate(114.250000, 65.000000) scale(-1, 1) rotate(-90.000000) translate(-114.250000, -65.000000) "></path>
                        <path d="M0,16.25 C0,7.27537282 7.26792427,0 16.2508979,0 L113.749102,0 C122.724225,0 130,7.27339954 130,16.25 L130,32.5 L0,32.5 L0,16.25 Z" id="Rectangle-5-Copy-4"></path>
                        <path d="M0,113.75 C0,104.775373 7.26792427,97.5 16.2508979,97.5 L113.749102,97.5 C122.724225,97.5 130,104.7734 130,113.75 L130,130 L0,130 L0,113.75 Z" id="Rectangle-5-Copy-5" transform="translate(65.000000, 113.750000) scale(1, -1) translate(-65.000000, -113.750000) "></path>
                    </g>
                    <g id="FO-Copy-29" transform="translate(504.000000, 65.000000) rotate(-270.000000) translate(-504.000000, -65.000000) translate(439.000000, 10.000000)">
                        <path d="M-33.75,58 C-33.75,49.0253728 -26.4776956,41.75 -17.502526,41.75 L50.002526,41.75 C58.9757581,41.75 66.25,49.0233995 66.25,58 L66.25,58 C66.25,66.9746272 58.9776956,74.25 50.002526,74.25 L-33.75,74.25 L-33.75,58 Z" id="Rectangle-5-Copy-7" transform="translate(16.250000, 58.000000) rotate(-90.000000) translate(-16.250000, -58.000000) "></path>
                        <path d="M63.7478789,58 C63.7478789,49.0253728 71.0201833,41.75 79.9953529,41.75 L147.500405,41.75 C156.473637,41.75 163.747879,49.0233995 163.747879,58 L163.747879,58 C163.747879,66.9746272 156.475574,74.25 147.500405,74.25 L63.7478789,74.25 L63.7478789,58 Z" id="Rectangle-5-Copy-13" transform="translate(113.747879, 58.000000) scale(-1, 1) rotate(-90.000000) translate(-113.747879, -58.000000) "></path>
                        <path d="M-1.42108547e-14,16.25 C-1.42108547e-14,7.27537282 7.26792427,0 16.2508979,0 L113.749102,0 C122.724225,0 130,7.27339954 130,16.25 L130,32.5 L-1.42108547e-14,32.5 L-1.42108547e-14,16.25 Z" id="Rectangle-5-Copy-4"></path>
                        <path d="M0,93.75 C0,84.7753728 7.26792427,77.5 16.2508979,77.5 L113.749102,77.5 C122.724225,77.5 130,84.7733995 130,93.75 L130,110 L0,110 L0,93.75 Z" id="Rectangle-5-Copy-5" transform="translate(65.000000, 93.750000) scale(-1, 1) translate(-65.000000, -93.750000) "></path>
                    </g>
                    <g id="FO-Copy-30" transform="translate(150.000000, 0.000000)">
                        <path d="M-0.375,65.375 C-0.375,56.538444 6.787903,49.375 15.6306923,49.375 L113.619308,49.375 C122.459007,49.375 129.625,56.5365011 129.625,65.375 L129.625,65.375 C129.625,74.211556 122.462097,81.375 113.619308,81.375 L-0.375,81.375 L-0.375,65.375 Z" id="Rectangle-5-Copy-7" transform="translate(64.625000, 65.375000) scale(-1, 1) rotate(-90.000000) translate(-64.625000, -65.375000) "></path>
                        <path d="M0,16.25 C0,7.27537282 7.26792427,0 16.2508979,0 L113.749102,0 C122.724225,0 130,7.27339954 130,16.25 L130,32.5 L0,32.5 L0,16.25 Z" id="Rectangle-5-Copy-4"></path>
                    </g>
                    <g id="FO-Copy-31" transform="translate(364.500000, 65.000000) rotate(-90.000000) translate(-364.500000, -65.000000) translate(299.500000, -0.500000)">
                        <path d="M-48.75,65 C-48.75,56.0253728 -41.4820757,48.75 -32.4991021,48.75 L64.9991021,48.75 C73.9742252,48.75 81.25,56.0233995 81.25,65 L81.25,65 C81.25,73.9746272 73.9820757,81.25 64.9991021,81.25 L-48.75,81.25 L-48.75,65 Z" id="Rectangle-5-Copy-7" transform="translate(16.250000, 65.000000) rotate(-90.000000) translate(-16.250000, -65.000000) "></path>
                        <path d="M0,16.25 C0,7.27537282 7.26792427,0 16.2508979,0 L113.749102,0 C122.724225,0 130,7.27339954 130,16.25 L130,32.5 L0,32.5 L0,16.25 Z" id="Rectangle-5-Copy-4"></path>
                        <path d="M0,114.25 C0,105.275373 7.26792427,98 16.2508979,98 L113.749102,98 C122.724225,98 130,105.2734 130,114.25 L130,130.5 L0,130.5 L0,114.25 Z" id="Rectangle-5-Copy-5" transform="translate(65.000000, 114.250000) scale(1, -1) translate(-65.000000, -114.250000) "></path>
                    </g>
                    <rect id="Rectangle-5-Copy-16" transform="translate(604.250000, 65.000000) scale(-1, 1) rotate(-90.000000) translate(-604.250000, -65.000000) " x="539.25" y="48.75" width="130" height="32.5" rx="16.25"></rect>
                </g>
            </g>
        </g>
    </g>
</svg>