<svg xmlns="http://www.w3.org/2000/svg" viewBox="0 0 297 297">
    <circle cx="148.5" cy="148.5" r="148.5"/>
    <g fill="#fff">
        <path d="M81 207v18h18l9-9v-18H90zm18 9h-9v-9h9zm18-18v36l9-9h18v-18l-9-9zm18 18h-9v-9h9zm18 9h36l-9-9h-9l9-9v-9h-27zm18-18v9h-9v-9zm27 18v-27l9 9v18h-9zm27 0v-18l-9-9h-9l9 9v18h9zM27 180L9 162v-54l18 18v54zm-9-72l18 18h36l-18-18H18zm18 27h18l-18 18v-18zm45-27l18 18v36h18l18 18H99l-18-18v-54zm63 72l-18-18v-54l18 18v54zm9-72v27l18 18h27v9l18 18v-27l-18-18h-27v-9l-18-18z"/>
        <path d="M180 126l-18-18h36l18 18h-36zm27 54l-18-18h-36l18 18h36zm18-72v54l18 18h45l-18-18h-27v-36l-18-18zm9 0l18 18h36l-18-18h-36z"/>
        <path d="M252 135h18l-18 18v-18z"/>
    </g>
</svg>
