<svg width="85" viewBox="0 0 159 34">
  <path d="M34.058 10.31v13.38h9.697v-1.954h-7.487a.1.1 0 0 1-.098-.1v-3.628c0-.055.044-.098.098-.098h6.542v-1.954h-6.542a.1.1 0 0 1-.098-.101v-3.493c0-.053.044-.098.098-.098h7.392V10.31h-9.602zm15.766 0v13.38h2.112v-9.56a.1.1 0 0 1 .067-.096.093.093 0 0 1 .109.034l7.255 9.622h1.8V10.31h-2.112v9.289a.1.1 0 0 1-.067.095.095.095 0 0 1-.109-.034l-7.046-9.35h-2.009zm16.949 0l5.424 13.478h1.913l5.424-13.478H77.23l-3.947 10.374a.098.098 0 0 1-.182 0L69.134 10.31h-2.361zm18.367 0v13.38h9.697v-1.954h-7.486a.1.1 0 0 1-.099-.1v-3.628c0-.055.044-.098.099-.098h6.54v-1.954h-6.54a.1.1 0 0 1-.099-.101v-3.493c0-.053.044-.098.099-.098h7.392V10.31H85.14zm23.344 3.078l1.139-1.646a7.663 7.663 0 0 0-2.086-1.197c-.826-.31-1.708-.43-2.585-.43-.606 0-1.209.085-1.783.286-.505.178-.98.43-1.389.787a3.583 3.583 0 0 0-1.233 2.765v.04c0 .525.072 1.068.284 1.549.19.428.469.786.826 1.08.404.329.88.573 1.358.76.61.236 1.242.42 1.877.569.505.117 1.028.25 1.517.43.321.117.66.27.935.479.198.149.383.34.486.572.095.217.132.455.132.69v.04c0 .558-.234.999-.676 1.323-.508.374-1.154.484-1.768.484-.782 0-1.556-.132-2.271-.465a8.188 8.188 0 0 1-1.897-1.26l-1.275 1.557a7.855 7.855 0 0 0 2.49 1.557 8.1 8.1 0 0 0 2.897.527c.635 0 1.274-.078 1.882-.268a4.144 4.144 0 0 0 1.45-.778c.404-.341.718-.759.943-1.245.24-.523.337-1.09.337-1.664v-.04c0-.485-.07-.977-.265-1.425a3.102 3.102 0 0 0-.783-1.07c-.382-.342-.842-.596-1.308-.788a14.032 14.032 0 0 0-1.835-.597 19.183 19.183 0 0 1-1.575-.448c-.335-.116-.695-.265-.991-.468a1.43 1.43 0 0 1-.516-.585 1.785 1.785 0 0 1-.14-.729v-.04c0-.505.22-.908.603-1.221.461-.38 1.072-.49 1.649-.49.632 0 1.245.13 1.833.368a8.13 8.13 0 0 1 1.738.991zm10.874 10.302h2.15V12.422a.1.1 0 0 1 .1-.1h4.1V10.31h-10.547v2.011h4.1a.1.1 0 0 1 .097.1v11.27zm12.097-13.38v13.38h9.698v-1.954h-7.488a.099.099 0 0 1-.096-.1v-3.628c0-.055.043-.098.096-.098h6.543v-1.954h-6.543a.099.099 0 0 1-.096-.101v-3.493c0-.053.043-.098.096-.098h7.394V10.31h-9.604zm15.766 0v13.38h4.84c.963 0 1.913-.154 2.812-.518a6.72 6.72 0 0 0 2.2-1.414 6.238 6.238 0 0 0 1.424-2.12c.345-.84.503-1.728.503-2.639v-.038c0-.906-.156-1.792-.503-2.628a6.27 6.27 0 0 0-1.425-2.11 6.63 6.63 0 0 0-2.2-1.406c-.898-.356-1.85-.507-2.811-.507h-4.84zm4.82 11.426h-2.61a.099.099 0 0 1-.096-.1v-9.274c0-.053.044-.098.096-.098h2.61c.66 0 1.316.102 1.928.356.556.23 1.058.554 1.48.99.418.43.73.94.948 1.504a5.2 5.2 0 0 1 .338 1.885v.04a5.11 5.11 0 0 1-.338 1.876 4.447 4.447 0 0 1-.947 1.495 4.236 4.236 0 0 1-1.48.98c-.615.248-1.27.346-1.929.346zM17.668 29.912V34H0V5.982h17.668v4.088H3.985v7.877h13.683v4.088H3.985v7.877h13.683zM23.5 0v28.018H5.832V23.93h13.684v-7.877H5.832v-4.088h13.684V4.088H5.832V0H23.5zm-3.984 34v-4.088h3.986V34h-3.986zM0 4.088V.002h3.985v4.086H0z"/>
</svg>
