<svg width="117" viewBox="0 0 166 18">
  <path d="M31.6 0v18h3.6v-7.7h5.7l1.2-3.4h-6.9V3.3h8.1L44.5 0zm21.3 10.4c0-2.8-1.3-4.5-3.3-4.5s-3.3 1.8-3.3 4.5 1.3 4.5 3.3 4.5 3.3-1.7 3.3-4.5zm-3.4-7.6c4 0 6.7 3.1 6.7 7.6S53.5 18 49.5 18s-6.7-3.1-6.7-7.6 2.9-7.6 6.7-7.6zm15.4 0C60.8 2.8 58 6 58 10.4s3 7.6 6.9 7.6c1.2 0 2.7-.3 3.9-1.2v-3.6l-.3.3c-.9.9-2.1 1.4-3.5 1.4-2.3 0-3.9-1.8-3.9-4.5s1.5-4.5 3.9-4.5c1.3 0 2.6.5 3.5 1.4l.3.3V4.1c-1.2-1-2.7-1.3-3.9-1.3m27.8 6.3l-1.8-.5c-1.2-.4-1.7-.6-1.7-1.5 0-1 1.2-1.3 2.1-1.3 1.4 0 2.7.5 4 1.8l.3.1V4.1c-1.2-.9-2.6-1.3-4.2-1.3-3.1 0-5.3 1.8-5.3 4.4 0 2.2 1.2 3.6 3.9 4.4l1.5.5c1.2.4 1.8.8 1.8 1.5 0 1.3-1.7 1.4-2.3 1.4-1.5 0-3.3-.8-4.6-2.1l-.4-.2v3.7c1 .9 3 1.5 4.8 1.5 3.3 0 5.5-1.8 5.5-4.5 0-2.1-1.1-3.4-3.6-4.3m20.6 8.5h3.3V3.2h-3.3zm12.6-8.5l-1.8-.5c-1.2-.4-1.7-.6-1.7-1.5 0-1 1.2-1.3 2.1-1.3 1.4 0 2.7.5 4 1.8l.3.1V4.1c-1.2-.9-2.6-1.3-4.2-1.3-3.1 0-5.3 1.8-5.3 4.4 0 2.2 1.2 3.6 3.9 4.4l1.5.5c1.2.4 1.8.8 1.8 1.5 0 1.3-1.7 1.4-2.3 1.4-1.5 0-3.3-.8-4.6-2.1l-.3-.3v3.7c1 .9 3 1.5 4.8 1.5 3.3 0 5.5-1.8 5.5-4.5-.1-2-1.3-3.3-3.7-4.2m5.9 8.5h3.3V3.1l-3.3.1zm15.3-7.2c0 2.8-1.3 4.5-3.3 4.5-2.1 0-3.3-1.8-3.3-4.5s1.3-4.5 3.3-4.5 3.3 1.7 3.3 4.5m-3.3-7.6c-4 0-6.7 3.1-6.7 7.6s2.7 7.6 6.7 7.6 6.7-3.1 6.7-7.6-2.8-7.6-6.7-7.6m14.7 0c-4 0-6.7 3.1-6.7 7.6v7.2h3.3v-7.2c0-2.8 1.3-4.5 3.3-4.5 2.1 0 3.3 1.8 3.3 4.5v7.2h3.3v-7.2c.2-4.5-2.5-7.6-6.5-7.6m-77.6 7.6c0 2.8-1.3 4.5-3.3 4.5-2.1 0-3.3-1.8-3.3-4.5V3.2H71v7.2c0 4.5 2.7 7.6 6.7 7.6s6.7-3.1 6.7-7.6V3.2h-3.3c-.2 0-.2 7.2-.2 7.2zm23.4 2.8L99.7.3h-3.6l6.4 17.3h3.3L112.3.3h-3.6z"/>
  <path d="M10.2 3.9L8.9.3H.8l1.3 3.6zM4.1 9.8h8.1l-1.3-3.6H2.8zm9 2.4L17.2.4h4.1L15.2 18z"/>
</svg>
