<svg width="60" viewBox="0 0 858 262">
  <path d="M28 5.28a25.74 25.74 0 0 1 25.78 26 25.78 25.78 0 1 1-51.57 0A25.74 25.74 0 0 1 28 5.28M8.34 77.95h39.37v178.12H8.34zm247.41 181.62l-39.37-22c-11.45 11-29 20.66-52.62 20.66C110.43 258.2 75 222.58 75 167s35.43-91.2 88.76-91.2c22.19 0 41.52 8.55 52.62 20.66V6.7l39.37-4.28zm-90.2-146c-31.14 0-51.9 22.8-51.9 53.44s20.76 53.43 51.9 53.43 51.54-22.8 51.54-53.43-20.4-53.44-51.54-53.44m156.24 66.98c4.29 22.44 24.7 40.61 50.47 40.61 18.26 0 32.93-5.7 40.45-17.1h46.89c-12.17 32.42-46.89 54.15-87.34 54.15-51.9 0-92-40.61-92-91.2s40.09-91.19 90.91-91.19 90.93 40.6 90.93 91.18a82.77 82.77 0 0 1-1.1 13.55zm1.79-34.91h95.21c-5.73-18.53-25.06-33.49-47.6-33.49s-41.88 15-47.6 33.49m340.53-67.69v181.62l-40.08-22c-7.52 9.62-27.21 20.66-51.19 20.66C521.66 258.2 483 220.44 483 167s38.66-91.2 89.84-91.2c23.62 0 43.67 11 51.19 20.66V77.95zm-89.84 35.63c-29.71 0-52.61 24.22-52.61 53.44s22.91 53.43 52.61 53.43c29 0 51.18-24.23 51.18-53.43s-22.19-53.44-51.18-53.44m124.34-39.14l35.55 23.81c8.23-10.68 28.16-22.43 52.83-22.43 44.38 0 68.72 26 68.72 73.38v106.87h-39.34v-98.32c0-31.35-13.24-44.89-39-44.89S738 131.38 738 157.75v98.32h-39.38z"/>
</svg>
