<svg width="61" viewBox="0 0 176.132 77.239">
  <path d="M38.65 0C17.29 0 0 17.288 0 38.629c0 21.34 17.29 38.61 38.65 38.61 21.328 0 38.65-17.27 38.65-38.61C77.3 17.288 59.979 0 38.65 0zm.01 6.26a41.776 41.776 0 0 1 1.54.045v3.01c-.38-.02-1.202-.02-1.54-.02-7.846 0-15.203 3.052-20.74 8.582-5.555 5.535-8.615 12.923-8.615 20.734 0 7.856 3.06 15.207 8.615 20.725 5.537 5.54 12.894 8.592 20.74 8.592 15.5 0 28.23-12.073 29.248-27.315.014-.082.014-.398.014-.463H47.898v-2.976h23.106v1.437c0 8.66-3.38 16.777-9.49 22.881-6.11 6.09-14.229 9.455-22.854 9.455-8.658 0-16.778-3.365-22.898-9.455C9.667 55.388 6.3 47.272 6.3 38.612 6.3 20.781 20.82 6.26 38.66 6.26zM26.31 21.654c2.563 0 4.628 2.092 4.628 4.639a4.632 4.632 0 0 1-4.628 4.629 4.63 4.63 0 0 1-4.63-4.629c0-2.547 2.067-4.639 4.63-4.639zm10.787.022H40.2v30.84h7.668v3.047H37.096V21.675zm69.27-8.674H94.753V63.28h35.672v-9.787h-24.058V13.002zm49.607 31.118h9.459v8.791c-1.744.664-5.145 1.326-8.381 1.326-10.453 0-13.935-5.309-13.935-16.092 0-10.283 3.316-16.346 13.769-16.346 5.809 0 9.127 1.826 11.861 5.311l7.221-6.639c-4.398-6.3-12.115-8.208-19.33-8.208-16.264 0-24.807 8.876-24.807 25.798 0 16.84 7.715 25.965 24.725 25.965 7.797 0 15.43-1.99 19.576-4.893v-24.39h-20.158z"/>
</svg>
