<svg width="95" viewBox="0 0 300 47.61">
  <path d="M46.597 2.359L38.7 44.947h11.512l5.824-38.642.238-.004 5.677 38.646h11.442l-7.85-42.588zm64.351 0l-5.253 32.565h-.242L100.208 2.36H82.837l-.94 42.588h10.66l.267-38.285h.235l7.113 38.285h10.808l7.117-38.281.235-.004.266 38.285h10.653l-.939-42.588zm136.134 0l.578 33.431h-.235l-9.787-33.431H221.83v42.15h10.474l-.588-34.584h.234l10.513 34.584h15.167V2.359zM20.777 32.933c.417 1.03.284 2.352.084 3.15-.347 1.42-1.31 2.867-4.15 2.867-2.663 0-4.278-1.542-4.278-3.862l-.01-4.128H1.001l-.004 3.284c0 9.5 7.475 12.37 15.479 12.37 7.706 0 14.042-2.628 15.054-9.738.52-3.676.137-6.084-.045-6.981-1.798-8.918-17.956-11.578-19.162-16.565-.203-.865-.154-1.762-.045-2.24.301-1.366 1.226-2.859 3.89-2.859 2.495 0 3.956 1.539 3.956 3.859v2.638h10.628v-3c0-9.275-8.333-10.726-14.36-10.726-7.57 0-13.762 2.51-14.89 9.455-.308 1.899-.35 3.599.098 5.743 1.847 8.705 16.982 11.221 19.176 16.733m138.468-.081c.406 1.024.28 2.324.08 3.12-.343 1.4-1.296 2.83-4.107 2.83-2.638 0-4.24-1.52-4.24-3.823l-.007-4.082h-11.308l-.004 3.252c0 9.405 7.404 12.244 15.328 12.244 7.629 0 13.901-2.6 14.903-9.64.512-3.638.137-6.02-.045-6.914-1.784-8.831-17.78-11.463-18.969-16.4-.207-.852-.154-1.739-.052-2.212.3-1.352 1.219-2.831 3.85-2.831 2.478 0 3.922 1.517 3.922 3.82v2.607h10.523v-2.965c0-9.185-8.252-10.618-14.22-10.618-7.489 0-13.621 2.478-14.736 9.356-.308 1.882-.35 3.564.099 5.684 1.822 8.625 16.81 11.113 18.982 16.572m35.754 5.72c2.96 0 3.872-2.04 4.082-3.087.091-.459.105-1.08.102-1.626V2.352h10.779v30.536c.014.785-.067 2.387-.109 2.804-.743 7.948-7.026 10.523-14.854 10.523-7.832 0-14.116-2.575-14.862-10.523-.039-.417-.12-2.019-.098-2.804V2.352h10.772v31.507c-.01.547.01 1.167.102 1.626.206 1.048 1.121 3.087 4.086 3.087m88.83-.442c3.084 0 4.16-1.952 4.352-3.091.088-.48.109-1.076.102-1.616v-6.185h-4.367v-6.21H299v11.417c-.007.803-.024 1.388-.154 2.804-.704 7.758-7.429 10.527-14.977 10.527-7.552 0-14.27-2.769-14.981-10.527-.123-1.416-.144-2.001-.147-2.804l.004-17.917c0-.757.09-2.092.179-2.803.95-7.962 7.394-10.524 14.949-10.524 7.552 0 14.164 2.537 14.95 10.524.136 1.356.09 2.803.097 2.803v1.42h-10.74V13.56c.003.003-.007-1.01-.134-1.623-.192-.939-1.002-3.09-4.257-3.09-3.098 0-4.01 2.039-4.244 3.09-.123.561-.172 1.321-.172 2.015v19.47c-.004.54.018 1.136.098 1.616.2 1.139 1.276 3.09 4.356 3.09"/>
</svg>
