<svg width="86" viewBox="0 0 234.13 43.28">
  <path d="M60.34 10.95h6.06c1.76 4.5 3.55 9 5.32 13.51a10.35 10.35 0 0 0 .45 1q2.74-7.23 5.52-14.46h5.76l-8.94 21.9h-4.92c-3.1-7.3-6.14-14.62-9.25-21.95zm156.78 2.53c3.48-3.84 10.24-4.19 14-.53 2.62 2.74 3.15 6.77 3 10.41h-14.24a4.89 4.89 0 0 0 2.84 4.67 9.82 9.82 0 0 0 9-1.38c.45 1.55 1 3.05 1.46 4.61a15.57 15.57 0 0 1-7.89 2.16 10.63 10.63 0 0 1-8-2.94c-2.46-2.48-3.29-6.15-3-9.55a11.51 11.51 0 0 1 2.83-7.45zm4.49 2.49a4.92 4.92 0 0 0-1.61 3.31h8.44a4.72 4.72 0 0 0-2.44-4 4 4 0 0 0-4.39.69zm-25.04-3.31a10.18 10.18 0 0 1 8.27-2.07 6.46 6.46 0 0 1 4.56 3.08 13.07 13.07 0 0 1 1.39 7v12.24h-5.65V20.67a6.54 6.54 0 0 0-1.14-4.31 3.43 3.43 0 0 0-2.83-1.19c-1.72-.06-3.13 1.08-4.34 2.16v15.59h-5.64v-22h5.15c.06.6.14 1.17.23 1.74zm-22.24-1.95a11.06 11.06 0 0 1 8.2 1.16 10.77 10.77 0 0 1 4.81 7.35 13.39 13.39 0 0 1-1.42 9.16 9.77 9.77 0 0 1-6.17 4.72 10.27 10.27 0 0 1-12.87-8.19 13.18 13.18 0 0 1 1.58-10 9.63 9.63 0 0 1 5.87-4.2zm1.46 4.6a5 5 0 0 0-3.11 3.1 10.05 10.05 0 0 0-.07 6.63 5.38 5.38 0 0 0 1.79 2.62 4.45 4.45 0 0 0 5.71-.35 7.82 7.82 0 0 0 1.89-5.63c-.06-2-.58-4.27-2.24-5.59a4.57 4.57 0 0 0-3.97-.81zm-43.14-2.24a13.88 13.88 0 0 1 10.72-2.41 6.74 6.74 0 0 1 4.63 3.16 11.06 11.06 0 0 1 1.19 6.12v13h-5.18c-.06-.54-.13-1.08-.23-1.62a7.87 7.87 0 0 1-10.88-.13 6.66 6.66 0 0 1 2.22-10.79 23.62 23.62 0 0 1 8.39-1.71c.07-1.24-.23-2.77-1.52-3.29-2.55-1.09-5.39.13-7.47 1.68-.62-1.37-1.26-2.68-1.87-4.01zM138 23.72a2.93 2.93 0 0 0-1.28 3.36 2.62 2.62 0 0 0 2.42 1.55 5.92 5.92 0 0 0 4.4-1.54V22.6c-1.86.2-3.84.22-5.54 1.12zM91.63 10.74A11.09 11.09 0 0 1 100 11.9a10.88 10.88 0 0 1 4.75 7.27 13.52 13.52 0 0 1-1.67 9.63 9.64 9.64 0 0 1-6.18 4.36 10.92 10.92 0 0 1-7.63-1.07 10.36 10.36 0 0 1-4.54-5.68 13.5 13.5 0 0 1 .64-10.59 9.73 9.73 0 0 1 6.26-5.08zm1.45 4.62a5.18 5.18 0 0 0-3.2 3.74 10.19 10.19 0 0 0 .3 6.32 4.69 4.69 0 0 0 3 2.93 4.41 4.41 0 0 0 4.48-1.21 8.1 8.1 0 0 0 1.71-6 6.86 6.86 0 0 0-2.11-5 4.56 4.56 0 0 0-4.18-.78zM122 2.52h5.66v30.4h-5.19c-.1-.56-.18-1.13-.23-1.7-2.59 2.92-7.4 2.79-10.3.4-2.9-2.39-4.08-6.13-4.06-9.7-.07-3.8 1.49-7.85 4.79-10a11 11 0 0 1 9.33-.95zm-5.74 13.3a6.32 6.32 0 0 0-2.78 4.59 10.32 10.32 0 0 0 .68 5.27 4.48 4.48 0 0 0 7.85 1V15.76a6.76 6.76 0 0 0-5.76.06zM156.19 4.9a6.22 6.22 0 0 1 4.66-2.85 13 13 0 0 1 6.41.79c-.18 1.57-.42 3.13-.63 4.71-1.53-.59-3.45-1-4.93-.12-1.15.78-1.06 2.3-1 3.53h4.71v4.59h-4.71v17.38h-5.62V15.54h-2.93v-4.59h2.93c-.08-2.05-.02-4.25 1.11-6.05zM12.27 2.13a21.91 21.91 0 0 1 18.53-.16 20.63 20.63 0 0 0-12.71 3.54 18.84 18.84 0 0 0-7.91 11 15.06 15.06 0 0 0 .63 9.67 12.32 12.32 0 0 0 11 7.55 11.59 11.59 0 0 0 7.51-2.61 11.79 11.79 0 0 0 4.24-8.39 11 11 0 0 0-2.23-7.45 13.34 13.34 0 0 0-7.39-4.23 8.91 8.91 0 0 1 7-9 21.62 21.62 0 0 1 4.19 36.5 21.68 21.68 0 0 1-33.65-25A21.77 21.77 0 0 1 12.27 2.13z"/>
</svg>
